:SAMPLES-PER-SECOND 30
:FULLY-SPECIFIED
:DEGREES
943
root  -56.583 39.2556 4.3346 -12.6626 -81.8292 23.6785
RightUpLeg  -34.4392 -10.5392 -2.24231
RightLeg  19.4043 5.28869 1.98281
RightFoot  5.27381 0.139092 -0.704928
RightToes  6.35927e-011 1.30204e-014 -6.03759e-014
Spine  35.9767 -4.2841 5.50575
Spine1  4.18744 -2.96105 -1.27269
HEad  -34.1498 -4.9044 0.662283
LeftShoulder1  0.867875 -6.3293 -0.440297
LeftArm  -64.6252 -66.0724 -6.14724
LeftForeArm  -10.3366 -19.4039 -1.92835
LeftHand  -0.0357815 4.72438 1.44696
RightShoulder  0.0578259 1.84822 -8.47894
RightArm  -55.5537 62.5187 -3.61296
RightForeArm  -39.8785 13.613 -0.517341
RightHand  0.275398 5.69454 2.55011
LeftUpLeg  -30.5953 -0.868678 2.96543
LeftLeg  16.6392 -6.04019 -1.68603
LeftFoot  2.98171 0.211958 -1.83128
LeftToes  -7.16024e-010 4.79583e-011 -5.98286e-011
944
root  -56.5994 39.245 4.38858 -13.7493 -81.9402 24.7289
RightUpLeg  -34.5022 -10.6017 -2.39129
RightLeg  19.6478 5.43406 2.04985
RightFoot  5.10591 0.131472 -0.667187
RightToes  6.35927e-011 1.30204e-014 -6.03759e-014
Spine  35.8249 -4.36956 5.67115
Spine1  4.23902 -2.95882 -1.60637
HEad  -34.0541 -5.28891 0.770075
LeftShoulder1  0.836217 -6.47407 0.0676979
LeftArm  -64.091 -66.0028 -6.70432
LeftForeArm  -12.8009 -19.1925 -1.72806
LeftHand  -0.0360988 4.67247 1.6091
RightShoulder  0.075371 1.89474 -8.11181
RightArm  -56.4902 62.7156 -2.7169
RightForeArm  -40.5829 14.3659 -0.279861
RightHand  0.238177 5.1127 2.32268
LeftUpLeg  -30.6293 -1.64735 3.0332
LeftLeg  16.8316 -5.09309 -1.39694
LeftFoot  2.87815 0.201071 -1.75221
LeftToes  -7.16024e-010 4.79583e-011 -5.98286e-011
945
root  -56.6104 39.2417 4.48245 -15.6205 -82.0651 26.3549
RightUpLeg  -34.3245 -10.6729 -2.69748
RightLeg  19.8421 5.70426 2.15607
RightFoot  4.98534 0.106219 -0.502405
RightToes  6.35927e-011 1.30204e-014 -6.03759e-014
Spine  35.6115 -4.33951 5.70669
Spine1  4.43635 -2.9127 -1.68958
HEad  -33.8748 -6.00462 0.936781
LeftShoulder1  0.837467 -6.58002 0.154145
LeftArm  -63.8754 -65.761 -8.13418
LeftForeArm  -13.5805 -19.4108 -1.92919
LeftHand  -0.0356316 4.44352 1.61936
RightShoulder  0.0995278 1.84878 -7.57894
RightArm  -57.3483 62.637 -1.96607
RightForeArm  -40.5774 15.6496 0.453099
RightHand  0.187772 5.31444 1.71977
LeftUpLeg  -30.4508 -1.70364 2.72171
LeftLeg  17.1336 -5.0352 -1.4169
LeftFoot  2.83831 0.150427 -1.34766
LeftToes  -7.16024e-010 4.79583e-011 -5.98286e-011
946
root  -56.6052 39.2509 4.62381 -17.3492 -82.1704 27.5925
RightUpLeg  -33.7963 -10.7261 -3.09041
RightLeg  19.8511 5.93232 2.23994
RightFoot  5.07099 0.0861233 -0.35622
RightToes  6.35927e-011 1.30204e-014 -6.03759e-014
Spine  35.4052 -4.31508 5.82496
Spine1  4.61234 -2.8541 -1.6605
HEad  -33.9943 -6.44152 1.2656
LeftShoulder1  0.895159 -6.73506 -0.343946
LeftArm  -63.6116 -65.1739 -9.92865
LeftForeArm  -12.4826 -20.3985 -3.03654
LeftHand  -0.0375583 4.356 1.73611
RightShoulder  0.128162 1.82653 -6.95005
RightArm  -57.7013 62.1607 -1.28634
RightForeArm  -39.3086 17.1576 1.58429
RightHand  0.181012 6.09778 1.49141
LeftUpLeg  -30.0098 -1.65568 2.40563
LeftLeg  17.498 -5.15237 -1.49672
LeftFoot  2.68652 0.148694 -1.34214
LeftToes  -7.16024e-010 4.79583e-011 -5.98286e-011
947
root  -56.5891 39.2668 4.82459 -18.8372 -82.297 28.4248
RightUpLeg  -33.0166 -10.9739 -3.5005
RightLeg  19.7169 6.22895 2.36478
RightFoot  5.16224 0.0663417 -0.213434
RightToes  6.35927e-011 1.30204e-014 -6.03759e-014
Spine  35.0981 -4.41114 6.2122
Spine1  4.73774 -2.7977 -1.92965
HEad  -34.013 -6.87265 1.77157
LeftShoulder1  0.965005 -7.06786 -0.783618
LeftArm  -62.211 -64.0384 -12.3025
LeftForeArm  -11.0175 -22.1299 -4.66349
LeftHand  -0.0425093 4.20879 2.10094
RightShoulder  0.176478 1.78712 -5.87665
RightArm  -58.0018 61.3174 -0.221933
RightForeArm  -37.2889 19.1516 3.26078
RightHand  0.134535 6.38774 0.97816
LeftUpLeg  -29.3975 -2.35895 2.35959
LeftLeg  17.8287 -4.86702 -1.42682
LeftFoot  2.26378 0.214256 -1.91275
LeftToes  -7.16024e-010 4.79583e-011 -5.98286e-011
948
root  -56.5709 39.2785 5.07778 -20.6226 -82.5191 29.4607
RightUpLeg  -32.1265 -11.3989 -3.93806
RightLeg  19.5454 6.81898 2.62514
RightFoot  5.1728 0.0189952 0.113225
RightToes  6.35927e-011 1.30204e-014 -6.03759e-014
Spine  34.6406 -4.49467 6.66168
Spine1  4.84224 -2.72761 -2.26855
HEad  -33.7192 -7.30535 2.1984
LeftShoulder1  1.03325 -7.48726 -1.09201
LeftArm  -58.7379 -62.5029 -15.5344
LeftForeArm  -10.8786 -24.5824 -5.85745
LeftHand  -0.0559682 3.66423 2.56278
RightShoulder  0.234506 1.71424 -4.54111
RightArm  -58.1878 60.0742 1.79905
RightForeArm  -35.139 22.0221 5.45126
RightHand  -0.00605833 5.87391 -0.394036
LeftUpLeg  -28.7579 -4.43686 2.73579
LeftLeg  18.3741 -5.00696 -1.532
LeftFoot  1.45785 0.254596 -2.34888
LeftToes  -7.16024e-010 4.79583e-011 -5.98286e-011
949
root  -56.5514 39.2712 5.37447 -22.842 -82.9789 30.8051
RightUpLeg  -31.1788 -11.5733 -4.39822
RightLeg  19.4499 7.55887 2.93893
RightFoot  5.21495 -0.0471344 0.569247
RightToes  6.35927e-011 1.30204e-014 -6.03759e-014
Spine  34.0359 -4.4171 6.94556
Spine1  5.13922 -2.62021 -2.26632
HEad  -33.1291 -7.70391 2.53084
LeftShoulder1  1.11474 -7.62844 -1.79172
LeftArm  -54.2266 -60.9276 -19.0609
LeftForeArm  -11.6133 -27.6695 -6.55686
LeftHand  -0.0759961 2.98659 2.99308
RightShoulder  0.278925 1.54941 -3.36057
RightArm  -56.4771 58.6594 4.83592
RightForeArm  -34.1165 25.8126 7.12613
RightHand  -0.139466 5.41346 -1.80926
LeftUpLeg  -28.108 -8.16587 3.72812
LeftLeg  19.5536 -6.83312 -2.37358
LeftFoot  -0.246813 0.231532 -2.36803
LeftToes  -7.16024e-010 4.79583e-011 -5.98286e-011
950
root  -56.5342 39.2397 5.7286 -26.1594 -83.8874 33.0785
RightUpLeg  -30.145 -11.1476 -4.83995
RightLeg  19.4313 8.1289 3.14125
RightFoot  5.26383 -0.105339 0.969084
RightToes  6.35927e-011 1.30204e-014 -6.03759e-014
Spine  33.31 -4.17504 7.05351
Spine1  5.7275 -2.45396 -1.91141
HEad  -32.4119 -7.98736 2.78632
LeftShoulder1  1.22498 -7.25052 -3.35858
LeftArm  -50.0058 -59.4243 -22.0053
LeftForeArm  -11.7072 -31.1761 -7.4485
LeftHand  -0.0906399 2.67796 3.36143
RightShoulder  0.3025 1.29856 -2.46747
RightArm  -53.3207 57.2301 8.73095
RightForeArm  -33.1871 30.2797 8.14749
RightHand  -0.20044 5.26633 -2.49161
LeftUpLeg  -27.2701 -12.7727 5.05197
LeftLeg  21.2484 -10.0837 -3.98244
LeftFoot  -3.1155 0.171858 -2.11808
LeftToes  -7.16024e-010 4.79583e-011 -5.98286e-011
951
root  -56.5255 39.2097 6.15321 -34.2803 -85.2409 40.0944
RightUpLeg  -28.9931 -10.1944 -5.34324
RightLeg  19.176 8.64574 3.22042
RightFoot  5.30111 -0.181112 1.48628
RightToes  6.35927e-011 1.30204e-014 -6.03759e-014
Spine  32.5781 -3.88953 7.00258
Spine1  6.1245 -2.20837 -1.75507
HEad  -31.394 -8.0804 2.89906
LeftShoulder1  1.3517 -6.71634 -5.42161
LeftArm  -45.6457 -57.3997 -24.4884
LeftForeArm  -11.1483 -35.0854 -8.50478
LeftHand  -0.092732 2.60851 3.37697
RightShoulder  0.341192 1.16186 -1.30638
RightArm  -49.8102 55.6089 13.2848
RightForeArm  -31.4066 35.2325 9.49289
RightHand  -0.228322 4.94138 -2.86703
LeftUpLeg  -26.1098 -16.4431 5.7542
LeftLeg  22.7482 -12.6274 -5.42923
LeftFoot  -6.00689 0.107395 -1.52225
LeftToes  -7.16024e-010 4.79583e-011 -5.98286e-011
952
root  -56.5181 39.2129 6.63204 -54.9253 -86.5239 59.7712
RightUpLeg  -27.8064 -9.03361 -6.00893
RightLeg  18.3475 9.54958 3.25506
RightFoot  5.58494 -0.31106 2.34491
RightToes  6.35927e-011 1.30204e-014 -6.03759e-014
Spine  31.7681 -3.65421 6.59555
Spine1  6.20559 -1.97762 -2.06776
HEad  -29.9271 -7.93872 2.95059
LeftShoulder1  1.44512 -6.27984 -7.16293
LeftArm  -41.6937 -54.3654 -26.9639
LeftForeArm  -9.73853 -39.375 -9.76476
LeftHand  -0.0879882 2.37523 2.97251
RightShoulder  0.413423 1.12444 0.556771
RightArm  -45.733 53.8362 17.9988
RightForeArm  -29.5525 40.6214 11.1998
RightHand  -0.253208 4.206 -3.33924
LeftUpLeg  -24.8007 -17.7421 5.22138
LeftLeg  23.5375 -12.9375 -5.78257
LeftFoot  -7.38602 0.0651523 -0.627504
LeftToes  -7.16024e-010 4.79583e-011 -5.98286e-011
953
root  -56.4965 39.2389 7.14812 -90.9407 -86.9331 94.9425
RightUpLeg  -26.6925 -7.97959 -6.68085
RightLeg  17.11 10.9007 3.21739
RightFoot  6.27582 -0.458093 3.23314
RightToes  6.35927e-011 1.30204e-014 -6.03759e-014
Spine  30.6816 -3.42569 5.8022
Spine1  6.50034 -1.87547 -2.33575
HEad  -28.2401 -7.71871 3.0392
LeftShoulder1  1.48393 -5.70249 -8.67344
LeftArm  -38.5101 -50.8628 -29.2551
LeftForeArm  -7.99656 -43.8806 -11.2796
LeftHand  -0.0901789 1.97714 2.75608
RightShoulder  0.474723 0.945682 2.54618
RightArm  -41.8408 51.9327 22.7486
RightForeArm  -26.6896 46.0967 13.2518
RightHand  -0.244768 3.46145 -3.45286
LeftUpLeg  -23.5805 -16.8611 3.89559
LeftLeg  23.8143 -11.8178 -5.33368
LeftFoot  -7.3128 0.0338153 0.278306
LeftToes  -7.16024e-010 4.79583e-011 -5.98286e-011
954
root  -56.4638 39.2697 7.7052 -126.894 -86.0521 129.878
RightUpLeg  -25.3779 -7.2703 -7.08869
RightLeg  15.6141 12.565 3.01439
RightFoot  7.1759 -0.589417 3.91689
RightToes  6.35927e-011 1.30204e-014 -6.03759e-014
Spine  29.4632 -3.2002 5.09807
Spine1  7.10714 -1.74187 -2.60638
HEad  -26.4749 -7.70224 3.23004
LeftShoulder1  1.50044 -5.05943 -10.2352
LeftArm  -35.6125 -47.3846 -31.0832
LeftForeArm  -6.57558 -48.2936 -13.0606
LeftHand  -0.109038 1.60347 3.12655
RightShoulder  0.49797 0.528069 4.4731
RightArm  -38.1162 49.5222 27.7142
RightForeArm  -22.5108 51.4671 15.711
RightHand  -0.205077 2.95156 -3.0785
LeftUpLeg  -22.17 -15.0935 2.50566
LeftLeg  23.8391 -10.7478 -4.83431
LeftFoot  -6.94441 0.00968557 0.840138
LeftToes  -7.16024e-010 4.79583e-011 -5.98286e-011
